<?xml version="1.0" encoding="UTF-8" standalone="no"?>
<!DOCTYPE svg PUBLIC "-//W3C//DTD SVG 1.1//EN" "http://www.w3.org/Graphics/SVG/1.1/DTD/svg11.dtd">
<!-- Generated by graphviz version 2.38.0 (20140413.2041) -->
<!-- Title: null Pages: 1 -->
<svg width="1227pt" height="509pt" viewBox="0.00 0.00 1227.11 509.00" xmlns="http://www.w3.org/2000/svg" xmlns:xlink="http://www.w3.org/1999/xlink">
<g id="graph0" class="graph" transform="scale(1 1) rotate(0) translate(4 505)">
<title>null</title>
<polygon fill="white" stroke="none" points="-4,4 -4,-505 1223.11,-505 1223.11,4 -4,4"/>
<!-- main -->
<!-- &#45;&#45;&gt; creates a minimum distribution in ./dist -->
<g id="node1" class="node"><title>main</title>
<polygon fill="yellow" stroke="black" stroke-width="2" points="340.81,-191.544 340.81,-206.456 323.946,-217 300.097,-217 283.233,-206.456 283.233,-191.544 300.097,-181 323.946,-181 340.81,-191.544"/>
<text text-anchor="middle" x="312.021" y="-195.4" font-family="Helvetica,sans-Serif" font-weight="bold" font-size="12.00">main</text>
</g>
<!-- dist&#45;lite -->
<!-- &#45;&#45;&gt; creates a minimum distribution to run Apache Ant -->
<g id="node2" class="node"><title>dist&#45;lite</title>
<polygon fill="limegreen" stroke="black" stroke-width="2" points="486.827,-213 432.505,-213 432.505,-177 486.827,-177 486.827,-213"/>
<text text-anchor="middle" x="459.666" y="-191.4" font-family="Times,serif" font-weight="bold" font-size="12.00">dist&#45;lite</text>
</g>
<!-- main&#45;&gt;dist&#45;lite -->
<g id="edge1" class="edge"><title>main&#45;&gt;dist&#45;lite</title>
<path fill="none" stroke="black" d="M340.759,-198.238C363.868,-197.604 396.965,-196.695 422.213,-196.001"/>
<polygon fill="black" stroke="black" points="422.601,-199.492 432.502,-195.719 422.409,-192.495 422.601,-199.492"/>
</g>
<!-- jars -->
<!-- &#45;&#45;&gt; creates the Apache Ant jars -->
<g id="node29" class="node"><title>jars</title>
<polygon fill="limegreen" stroke="black" stroke-width="2" points="747.408,-222 693.408,-222 693.408,-186 747.408,-186 747.408,-222"/>
<text text-anchor="middle" x="720.408" y="-200.4" font-family="Times,serif" font-weight="bold" font-size="12.00">jars</text>
</g>
<!-- dist&#45;lite&#45;&gt;jars -->
<g id="edge29" class="edge"><title>dist&#45;lite&#45;&gt;jars</title>
<path fill="none" stroke="black" d="M486.9,-195.912C533.295,-197.526 629.91,-200.887 682.822,-202.727"/>
<polygon fill="black" stroke="black" points="682.99,-206.235 693.106,-203.085 683.233,-199.239 682.99,-206.235"/>
</g>
<!-- dist_javadocs -->
<g id="node3" class="node"><title>dist_javadocs</title>
<ellipse fill="none" stroke="black" cx="584.565" cy="-343" rx="48.8022" ry="18"/>
<text text-anchor="middle" x="584.565" y="-339.4" font-family="Times,serif" font-size="12.00">dist_javadocs</text>
</g>
<!-- javadocs -->
<!-- &#45;&#45;&gt; creates the API documentation -->
<g id="node4" class="node"><title>javadocs</title>
<polygon fill="limegreen" stroke="black" stroke-width="2" points="975.4,-346 915.066,-346 915.066,-310 975.4,-310 975.4,-346"/>
<text text-anchor="middle" x="945.233" y="-324.4" font-family="Times,serif" font-weight="bold" font-size="12.00">javadocs</text>
</g>
<!-- dist_javadocs&#45;&gt;javadocs -->
<g id="edge2" class="edge"><title>dist_javadocs&#45;&gt;javadocs</title>
<path fill="none" stroke="black" d="M633.193,-341.008C704.641,-338.02 838.248,-332.432 904.659,-329.655"/>
<polygon fill="black" stroke="black" points="904.876,-333.149 914.721,-329.234 904.583,-326.155 904.876,-333.149"/>
</g>
<!-- prepare -->
<g id="node12" class="node"><title>prepare</title>
<ellipse fill="none" stroke="black" cx="1123.34" cy="-262" rx="31.0058" ry="18"/>
<text text-anchor="middle" x="1123.34" y="-258.4" font-family="Times,serif" font-size="12.00">prepare</text>
</g>
<!-- javadocs&#45;&gt;prepare -->
<g id="edge24" class="edge"><title>javadocs&#45;&gt;prepare</title>
<path fill="none" stroke="black" d="M975.635,-318.043C986.345,-314.348 998.529,-310.066 1009.56,-306 1036.01,-296.248 1065.71,-284.635 1087.99,-275.788"/>
<polygon fill="black" stroke="black" points="1089.36,-279.009 1097.35,-272.058 1086.77,-272.506 1089.36,-279.009"/>
<text text-anchor="middle" x="1007.06" y="-309" font-family="Times,serif" font-size="10.00">1</text>
</g>
<!-- javadoc_check -->
<g id="node17" class="node"><title>javadoc_check</title>
<ellipse fill="none" stroke="black" cx="1123.34" cy="-202" rx="52.4828" ry="18"/>
<text text-anchor="middle" x="1123.34" y="-198.4" font-family="Times,serif" font-size="12.00">javadoc_check</text>
</g>
<!-- javadocs&#45;&gt;javadoc_check -->
<g id="edge25" class="edge"><title>javadocs&#45;&gt;javadoc_check</title>
<path fill="none" stroke="black" d="M971.606,-309.957C984.179,-300.092 998.909,-287.037 1009.56,-273 1020.85,-258.112 1013.65,-247.487 1027.56,-235 1038.62,-225.068 1052.83,-218.091 1066.87,-213.202"/>
<polygon fill="black" stroke="black" points="1068.04,-216.501 1076.52,-210.141 1065.93,-209.829 1068.04,-216.501"/>
<text text-anchor="middle" x="1007.06" y="-281" font-family="Times,serif" font-size="10.00">2</text>
</g>
<!-- test&#45;jar -->
<!-- &#45;&#45;&gt; creates the Apache Ant Test Utilties jar -->
<g id="node5" class="node"><title>test&#45;jar</title>
<polygon fill="limegreen" stroke="black" stroke-width="2" points="339.021,-271 285.021,-271 285.021,-235 339.021,-235 339.021,-271"/>
<text text-anchor="middle" x="312.021" y="-249.4" font-family="Times,serif" font-weight="bold" font-size="12.00">test&#45;jar</text>
</g>
<!-- compile&#45;tests -->
<g id="node6" class="node"><title>compile&#45;tests</title>
<ellipse fill="none" stroke="black" cx="459.666" cy="-253" rx="48.1955" ry="18"/>
<text text-anchor="middle" x="459.666" y="-249.4" font-family="Times,serif" font-size="12.00">compile&#45;tests</text>
</g>
<!-- test&#45;jar&#45;&gt;compile&#45;tests -->
<g id="edge3" class="edge"><title>test&#45;jar&#45;&gt;compile&#45;tests</title>
<path fill="none" stroke="black" d="M339.06,-253C356.365,-253 379.784,-253 401.311,-253"/>
<polygon fill="black" stroke="black" points="401.365,-256.5 411.365,-253 401.365,-249.5 401.365,-256.5"/>
</g>
<!-- build -->
<!-- &#45;&#45;&gt; compiles the source code -->
<g id="node20" class="node"><title>build</title>
<polygon fill="limegreen" stroke="black" stroke-width="2" points="972.233,-225 918.233,-225 918.233,-189 972.233,-189 972.233,-225"/>
<text text-anchor="middle" x="945.233" y="-203.4" font-family="Times,serif" font-weight="bold" font-size="12.00">build</text>
</g>
<!-- compile&#45;tests&#45;&gt;build -->
<g id="edge14" class="edge"><title>compile&#45;tests&#45;&gt;build</title>
<path fill="none" stroke="black" d="M507.877,-252.072C586.706,-249.913 749.896,-242.839 885.908,-220 893.223,-218.772 901.002,-217.215 908.414,-215.61"/>
<polygon fill="black" stroke="black" points="909.223,-219.016 918.218,-213.417 907.695,-212.185 909.223,-219.016"/>
</g>
<!-- probe&#45;offline -->
<g id="node7" class="node"><title>probe&#45;offline</title>
<ellipse fill="none" stroke="black" cx="459.666" cy="-72" rx="47.0894" ry="18"/>
<text text-anchor="middle" x="459.666" y="-68.4" font-family="Times,serif" font-size="12.00">probe&#45;offline</text>
</g>
<!-- internal_dist -->
<g id="node8" class="node"><title>internal_dist</title>
<ellipse fill="none" stroke="black" cx="312.021" cy="-307" rx="45.8901" ry="18"/>
<text text-anchor="middle" x="312.021" y="-303.4" font-family="Times,serif" font-size="12.00">internal_dist</text>
</g>
<!-- internal_dist&#45;&gt;dist&#45;lite -->
<g id="edge4" class="edge"><title>internal_dist&#45;&gt;dist&#45;lite</title>
<path fill="none" stroke="black" d="M341.996,-293.072C348.481,-289.295 355.085,-284.882 360.668,-280 383.353,-260.165 378.811,-245.637 401.668,-226 408.036,-220.529 415.527,-215.616 422.948,-211.4"/>
<polygon fill="black" stroke="black" points="425.052,-214.244 432.22,-206.443 421.751,-208.071 425.052,-214.244"/>
<text text-anchor="middle" x="381.168" y="-260" font-family="Times,serif" font-size="10.00">1</text>
</g>
<!-- internal_dist&#45;&gt;dist_javadocs -->
<g id="edge5" class="edge"><title>internal_dist&#45;&gt;dist_javadocs</title>
<path fill="none" stroke="black" d="M351.049,-316.52C360.062,-318.545 369.671,-320.517 378.668,-322 428.108,-330.15 484.813,-335.67 526.017,-338.997"/>
<polygon fill="black" stroke="black" points="525.901,-342.499 536.145,-339.796 526.452,-335.52 525.901,-342.499"/>
<text text-anchor="middle" x="381.168" y="-324" font-family="Times,serif" font-size="10.00">2</text>
</g>
<!-- bootstrap -->
<!-- &#45;&#45;&gt; creates a bootstrap build -->
<g id="node9" class="node"><title>bootstrap</title>
<polygon fill="limegreen" stroke="black" stroke-width="2" points="344.858,-163 279.185,-163 279.185,-127 344.858,-127 344.858,-163"/>
<text text-anchor="middle" x="312.021" y="-141.4" font-family="Times,serif" font-weight="bold" font-size="12.00">bootstrap</text>
</g>
<!-- bootstrap&#45;&gt;dist&#45;lite -->
<g id="edge6" class="edge"><title>bootstrap&#45;&gt;dist&#45;lite</title>
<path fill="none" stroke="black" stroke-dasharray="1,5" d="M344.984,-155.973C367.844,-163.821 398.646,-174.395 422.422,-182.557"/>
<polygon fill="black" stroke="black" points="421.543,-185.956 432.138,-185.893 423.816,-179.335 421.543,-185.956"/>
</g>
<!-- dump&#45;sys&#45;properties -->
<g id="node10" class="node"><title>dump&#45;sys&#45;properties</title>
<ellipse fill="none" stroke="black" cx="720.408" cy="-64" rx="68.8849" ry="18"/>
<text text-anchor="middle" x="720.408" y="-60.4" font-family="Times,serif" font-size="12.00">dump&#45;sys&#45;properties</text>
</g>
<!-- xml&#45;check -->
<g id="node11" class="node"><title>xml&#45;check</title>
<ellipse fill="none" stroke="black" cx="945.233" cy="-64" rx="40.1495" ry="18"/>
<text text-anchor="middle" x="945.233" y="-60.4" font-family="Times,serif" font-size="12.00">xml&#45;check</text>
</g>
<!-- dump&#45;sys&#45;properties&#45;&gt;xml&#45;check -->
<g id="edge7" class="edge"><title>dump&#45;sys&#45;properties&#45;&gt;xml&#45;check</title>
<path fill="none" stroke="black" d="M789.474,-64C823.51,-64 863.941,-64 894.94,-64"/>
<polygon fill="black" stroke="black" points="895.069,-67.5001 905.069,-64 895.069,-60.5001 895.069,-67.5001"/>
</g>
<!-- check_for_optional_packages -->
<g id="node21" class="node"><title>check_for_optional_packages</title>
<ellipse fill="none" stroke="black" cx="1123.34" cy="-64" rx="95.5548" ry="18"/>
<text text-anchor="middle" x="1123.34" y="-60.4" font-family="Times,serif" font-size="12.00">check_for_optional_packages</text>
</g>
<!-- xml&#45;check&#45;&gt;check_for_optional_packages -->
<g id="edge15" class="edge"><title>xml&#45;check&#45;&gt;check_for_optional_packages</title>
<path fill="none" stroke="black" d="M985.316,-64C995.112,-64 1006.09,-64 1017.47,-64"/>
<polygon fill="black" stroke="black" points="1017.54,-67.5001 1027.54,-64 1017.54,-60.5001 1017.54,-67.5001"/>
</g>
<!-- src&#45;dist -->
<!-- &#45;&#45;&gt; creates a source distribution -->
<g id="node13" class="node"><title>src&#45;dist</title>
<polygon fill="limegreen" stroke="black" stroke-width="2" points="339.021,-487 285.021,-487 285.021,-451 339.021,-451 339.021,-487"/>
<text text-anchor="middle" x="312.021" y="-465.4" font-family="Times,serif" font-weight="bold" font-size="12.00">src&#45;dist</text>
</g>
<!-- run&#45;tests -->
<g id="node14" class="node"><title>run&#45;tests</title>
<ellipse fill="none" stroke="black" cx="312.021" cy="-37" rx="34.4448" ry="18"/>
<text text-anchor="middle" x="312.021" y="-33.4" font-family="Times,serif" font-size="12.00">run&#45;tests</text>
</g>
<!-- run&#45;tests&#45;&gt;compile&#45;tests -->
<g id="edge9" class="edge"><title>run&#45;tests&#45;&gt;compile&#45;tests</title>
<path fill="none" stroke="black" d="M340.073,-47.5016C347.691,-51.6221 355.343,-57.0608 360.668,-64 404.836,-121.553 357,-164.834 401.668,-222 405.628,-227.068 410.656,-231.417 416.08,-235.116"/>
<polygon fill="black" stroke="black" points="414.462,-238.228 424.831,-240.404 418.082,-232.236 414.462,-238.228"/>
<text text-anchor="middle" x="381.168" y="-188" font-family="Times,serif" font-size="10.00">2</text>
</g>
<!-- run&#45;tests&#45;&gt;probe&#45;offline -->
<g id="edge10" class="edge"><title>run&#45;tests&#45;&gt;probe&#45;offline</title>
<path fill="none" stroke="black" d="M343.553,-44.3371C362.65,-48.9262 387.684,-54.9422 409.528,-60.1915"/>
<polygon fill="black" stroke="black" points="408.765,-63.6079 419.306,-62.5415 410.401,-56.8017 408.765,-63.6079"/>
<text text-anchor="middle" x="381.168" y="-56" font-family="Times,serif" font-size="10.00">3</text>
</g>
<!-- dump&#45;info -->
<g id="node15" class="node"><title>dump&#45;info</title>
<ellipse fill="none" stroke="black" cx="459.666" cy="-18" rx="40.1707" ry="18"/>
<text text-anchor="middle" x="459.666" y="-14.4" font-family="Times,serif" font-size="12.00">dump&#45;info</text>
</g>
<!-- run&#45;tests&#45;&gt;dump&#45;info -->
<g id="edge8" class="edge"><title>run&#45;tests&#45;&gt;dump&#45;info</title>
<path fill="none" stroke="black" d="M345.707,-32.736C364.879,-30.235 389.448,-27.0298 410.774,-24.2478"/>
<polygon fill="black" stroke="black" points="411.481,-27.6852 420.944,-22.921 410.576,-20.744 411.481,-27.6852"/>
<text text-anchor="middle" x="381.168" y="-31" font-family="Times,serif" font-size="10.00">1</text>
</g>
<!-- dump&#45;info&#45;&gt;dump&#45;sys&#45;properties -->
<g id="edge16" class="edge"><title>dump&#45;info&#45;&gt;dump&#45;sys&#45;properties</title>
<path fill="none" stroke="black" d="M496.889,-24.8535C509.19,-27.1565 523.02,-29.719 535.664,-32 574.238,-38.959 617.416,-46.4917 652.219,-52.4996"/>
<polygon fill="black" stroke="black" points="651.819,-55.9822 662.268,-54.2322 653.008,-49.084 651.819,-55.9822"/>
<text text-anchor="middle" x="584.565" y="-51" font-family="Times,serif" font-size="10.00">1</text>
</g>
<!-- run&#45;which -->
<g id="node22" class="node"><title>run&#45;which</title>
<ellipse fill="none" stroke="black" cx="846.629" cy="-18" rx="39.058" ry="18"/>
<text text-anchor="middle" x="846.629" y="-14.4" font-family="Times,serif" font-size="12.00">run&#45;which</text>
</g>
<!-- dump&#45;info&#45;&gt;run&#45;which -->
<g id="edge17" class="edge"><title>dump&#45;info&#45;&gt;run&#45;which</title>
<path fill="none" stroke="black" d="M500.055,-18C570.884,-18 719.544,-18 796.75,-18"/>
<polygon fill="black" stroke="black" points="797.154,-21.5001 807.154,-18 797.154,-14.5001 797.154,-21.5001"/>
<text text-anchor="middle" x="584.565" y="-20" font-family="Times,serif" font-size="10.00">2</text>
</g>
<!-- test&#45;javadocs -->
<!-- &#45;&#45;&gt; creates the API documentation for test utilities -->
<g id="node16" class="node"><title>test&#45;javadocs</title>
<polygon fill="limegreen" stroke="black" stroke-width="2" points="986.384,-279 904.082,-279 904.082,-243 986.384,-243 986.384,-279"/>
<text text-anchor="middle" x="945.233" y="-257.4" font-family="Times,serif" font-weight="bold" font-size="12.00">test&#45;javadocs</text>
</g>
<!-- test&#45;javadocs&#45;&gt;prepare -->
<g id="edge11" class="edge"><title>test&#45;javadocs&#45;&gt;prepare</title>
<path fill="none" stroke="black" d="M986.634,-261.229C1015.21,-261.392 1053.38,-261.608 1081.95,-261.771"/>
<polygon fill="black" stroke="black" points="1081.99,-265.271 1092.01,-261.828 1082.03,-258.271 1081.99,-265.271"/>
<text text-anchor="middle" x="1007.06" y="-264" font-family="Times,serif" font-size="10.00">1</text>
</g>
<!-- test&#45;javadocs&#45;&gt;javadoc_check -->
<g id="edge12" class="edge"><title>test&#45;javadocs&#45;&gt;javadoc_check</title>
<path fill="none" stroke="black" d="M975.578,-242.74C979.395,-239.968 983.156,-237.021 986.558,-234 995.75,-225.838 993.641,-218.651 1004.56,-213 1021.87,-204.037 1042.54,-200.21 1061.7,-198.941"/>
<polygon fill="black" stroke="black" points="1062.02,-202.43 1071.85,-198.49 1061.71,-195.437 1062.02,-202.43"/>
<text text-anchor="middle" x="1007.06" y="-215" font-family="Times,serif" font-size="10.00">2</text>
</g>
<!-- interactive&#45;tests -->
<!-- &#45;&#45;&gt; runs interactive tests -->
<g id="node18" class="node"><title>interactive&#45;tests</title>
<polygon fill="limegreen" stroke="black" stroke-width="2" points="360.815,-379 263.228,-379 263.228,-343 360.815,-343 360.815,-379"/>
<text text-anchor="middle" x="312.021" y="-357.4" font-family="Times,serif" font-weight="bold" font-size="12.00">interactive&#45;tests</text>
</g>
<!-- interactive&#45;tests&#45;&gt;compile&#45;tests -->
<g id="edge13" class="edge"><title>interactive&#45;tests&#45;&gt;compile&#45;tests</title>
<path fill="none" stroke="black" d="M350.717,-342.881C354.344,-340.218 357.751,-337.259 360.668,-334 374.212,-318.867 364.662,-306.706 378.668,-292 388.094,-282.103 400.556,-274.39 412.832,-268.532"/>
<polygon fill="black" stroke="black" points="414.407,-271.663 422.13,-264.409 411.569,-265.264 414.407,-271.663"/>
</g>
<!-- run&#45;single&#45;test&#45;only -->
<!-- &#45;&#45;&gt; runs the single unit test defined in the testcase property -->
<g id="node19" class="node"><title>run&#45;single&#45;test&#45;only</title>
<polygon fill="limegreen" stroke="black" stroke-width="2" points="517.662,-433 401.67,-433 401.67,-397 517.662,-397 517.662,-433"/>
<text text-anchor="middle" x="459.666" y="-411.4" font-family="Times,serif" font-weight="bold" font-size="12.00">run&#45;single&#45;test&#45;only</text>
</g>
<!-- build&#45;&gt;prepare -->
<g id="edge27" class="edge"><title>build&#45;&gt;prepare</title>
<path fill="none" stroke="black" d="M972.597,-215.234C1002.6,-224.603 1051.79,-239.969 1085.56,-250.514"/>
<polygon fill="black" stroke="black" points="1084.91,-253.979 1095.5,-253.619 1087,-247.297 1084.91,-253.979"/>
<text text-anchor="middle" x="1007.06" y="-229" font-family="Times,serif" font-size="10.00">1</text>
</g>
<!-- build&#45;&gt;check_for_optional_packages -->
<g id="edge28" class="edge"><title>build&#45;&gt;check_for_optional_packages</title>
<path fill="none" stroke="black" d="M968.536,-188.889C1000.07,-163.285 1057.73,-116.458 1092.79,-87.9894"/>
<polygon fill="black" stroke="black" points="1095.21,-90.5375 1100.76,-81.5167 1090.79,-85.1034 1095.21,-90.5375"/>
<text text-anchor="middle" x="1007.06" y="-159" font-family="Times,serif" font-size="10.00">2</text>
</g>
<!-- run&#45;which&#45;&gt;check_for_optional_packages -->
<g id="edge19" class="edge"><title>run&#45;which&#45;&gt;check_for_optional_packages</title>
<path fill="none" stroke="black" d="M884.871,-22.4733C912.899,-25.9901 952.225,-31.2441 986.558,-37 1006.84,-40.3995 1028.72,-44.542 1048.88,-48.5514"/>
<polygon fill="black" stroke="black" points="1048.44,-52.0326 1058.93,-50.5679 1049.82,-45.1693 1048.44,-52.0326"/>
</g>
<!-- distribution -->
<!-- &#45;&#45;&gt; creates the full Apache Ant distribution -->
<g id="node23" class="node"><title>distribution</title>
<polygon fill="limegreen" stroke="black" stroke-width="2" points="76.529,-447 0.156584,-447 0.156584,-411 76.529,-411 76.529,-447"/>
<text text-anchor="middle" x="38.3428" y="-425.4" font-family="Times,serif" font-weight="bold" font-size="12.00">distribution</text>
</g>
<!-- main_distribution -->
<!-- &#45;&#45;&gt; creates the zip and tar distributions -->
<g id="node24" class="node"><title>main_distribution</title>
<polygon fill="limegreen" stroke="black" stroke-width="2" points="222.22,-447 113.84,-447 113.84,-411 222.22,-411 222.22,-447"/>
<text text-anchor="middle" x="168.03" y="-425.4" font-family="Times,serif" font-weight="bold" font-size="12.00">main_distribution</text>
</g>
<!-- distribution&#45;&gt;main_distribution -->
<g id="edge18" class="edge"><title>distribution&#45;&gt;main_distribution</title>
<path fill="none" stroke="black" d="M76.6185,-429C85.1597,-429 94.473,-429 103.77,-429"/>
<polygon fill="black" stroke="black" points="103.814,-432.5 113.814,-429 103.814,-425.5 103.814,-432.5"/>
</g>
<!-- main_distribution&#45;&gt;internal_dist -->
<g id="edge20" class="edge"><title>main_distribution&#45;&gt;internal_dist</title>
<path fill="none" stroke="black" stroke-dasharray="1,5" d="M184.443,-410.715C202.144,-390.411 232.709,-357.419 263.375,-334 266.775,-331.403 270.452,-328.885 274.204,-326.498"/>
<polygon fill="black" stroke="black" points="276.244,-329.355 282.997,-321.192 272.627,-323.362 276.244,-329.355"/>
<text text-anchor="middle" x="242.875" y="-354" font-family="Times,serif" font-size="10.00">1</text>
</g>
<!-- main_distribution&#45;&gt;src&#45;dist -->
<g id="edge21" class="edge"><title>main_distribution&#45;&gt;src&#45;dist</title>
<path fill="none" stroke="black" stroke-dasharray="1,5" d="M222.307,-444.008C239.865,-448.955 258.968,-454.336 274.935,-458.834"/>
<polygon fill="black" stroke="black" points="274.352,-462.306 284.926,-461.649 276.25,-455.568 274.352,-462.306"/>
<text text-anchor="middle" x="242.875" y="-452" font-family="Times,serif" font-size="10.00">2</text>
</g>
<!-- allclean -->
<!-- &#45;&#45;&gt; cleans up everything -->
<g id="node25" class="node"><title>allclean</title>
<polygon fill="limegreen" stroke="black" stroke-width="2" points="66.1719,-501 10.5137,-501 10.5137,-465 66.1719,-465 66.1719,-501"/>
<text text-anchor="middle" x="38.3428" y="-479.4" font-family="Times,serif" font-weight="bold" font-size="12.00">allclean</text>
</g>
<!-- clean -->
<!-- &#45;&#45;&gt; cleans up build and dist directories -->
<g id="node26" class="node"><title>clean</title>
<polygon fill="limegreen" stroke="black" stroke-width="2" points="195.03,-501 141.03,-501 141.03,-465 195.03,-465 195.03,-501"/>
<text text-anchor="middle" x="168.03" y="-479.4" font-family="Times,serif" font-weight="bold" font-size="12.00">clean</text>
</g>
<!-- allclean&#45;&gt;clean -->
<g id="edge22" class="edge"><title>allclean&#45;&gt;clean</title>
<path fill="none" stroke="black" d="M66.1103,-483C84.7924,-483 109.957,-483 130.483,-483"/>
<polygon fill="black" stroke="black" points="130.735,-486.5 140.735,-483 130.735,-479.5 130.735,-486.5"/>
</g>
<!-- install&#45;lite -->
<g id="node27" class="node"><title>install&#45;lite</title>
<ellipse fill="none" stroke="black" cx="312.021" cy="-91" rx="38.7609" ry="18"/>
<text text-anchor="middle" x="312.021" y="-87.4" font-family="Times,serif" font-size="12.00">install&#45;lite</text>
</g>
<!-- install&#45;lite&#45;&gt;dist&#45;lite -->
<g id="edge23" class="edge"><title>install&#45;lite&#45;&gt;dist&#45;lite</title>
<path fill="none" stroke="black" stroke-dasharray="1,5" d="M350.676,-93.6441C361.871,-95.6668 373.777,-99.1267 383.668,-105 409.413,-120.288 430.35,-147.755 443.494,-168.338"/>
<polygon fill="black" stroke="black" points="440.582,-170.285 448.808,-176.962 446.542,-166.613 440.582,-170.285"/>
</g>
<!-- install -->
<g id="node28" class="node"><title>install</title>
<ellipse fill="none" stroke="black" cx="168.03" cy="-331" rx="27.0218" ry="18"/>
<text text-anchor="middle" x="168.03" y="-327.4" font-family="Times,serif" font-size="12.00">install</text>
</g>
<!-- install&#45;&gt;internal_dist -->
<g id="edge26" class="edge"><title>install&#45;&gt;internal_dist</title>
<path fill="none" stroke="black" stroke-dasharray="1,5" d="M194.744,-326.654C212.832,-323.596 237.651,-319.401 259.715,-315.672"/>
<polygon fill="black" stroke="black" points="260.348,-319.115 269.625,-313.997 259.181,-312.213 260.348,-319.115"/>
</g>
<!-- jars&#45;&gt;build -->
<g id="edge33" class="edge"><title>jars&#45;&gt;build</title>
<path fill="none" stroke="black" d="M747.844,-204.356C787.653,-204.892 863.097,-205.908 908,-206.512"/>
<polygon fill="black" stroke="black" points="908.13,-210.014 918.176,-206.649 908.224,-203.015 908.13,-210.014"/>
</g>
<!-- dist -->
<!-- &#45;&#45;&gt; creates a complete distribution -->
<g id="node30" class="node"><title>dist</title>
<polygon fill="limegreen" stroke="black" stroke-width="2" points="195.03,-295 141.03,-295 141.03,-259 195.03,-259 195.03,-295"/>
<text text-anchor="middle" x="168.03" y="-273.4" font-family="Times,serif" font-weight="bold" font-size="12.00">dist</text>
</g>
<!-- dist&#45;&gt;internal_dist -->
<g id="edge30" class="edge"><title>dist&#45;&gt;internal_dist</title>
<path fill="none" stroke="black" stroke-dasharray="1,5" d="M195.074,-282.502C213.611,-286.419 239.095,-291.803 261.451,-296.527"/>
<polygon fill="black" stroke="black" points="260.959,-300 271.466,-298.643 262.406,-293.151 260.959,-300"/>
</g>
<!-- run&#45;single&#45;test -->
<!-- &#45;&#45;&gt; runs the single unit test defined in the testcase property -->
<g id="node31" class="node"><title>run&#45;single&#45;test</title>
<polygon fill="limegreen" stroke="black" stroke-width="2" points="357.014,-433 267.029,-433 267.029,-397 357.014,-397 357.014,-433"/>
<text text-anchor="middle" x="312.021" y="-411.4" font-family="Times,serif" font-weight="bold" font-size="12.00">run&#45;single&#45;test</text>
</g>
<!-- run&#45;single&#45;test&#45;&gt;compile&#45;tests -->
<g id="edge31" class="edge"><title>run&#45;single&#45;test&#45;&gt;compile&#45;tests</title>
<path fill="none" stroke="black" d="M352.216,-396.637C355.378,-394.066 358.271,-391.194 360.668,-388 381.506,-360.239 359.53,-340.96 378.668,-312 389.325,-295.872 405.973,-282.562 421.327,-272.692"/>
<polygon fill="black" stroke="black" points="423.462,-275.489 430.164,-267.282 419.808,-269.519 423.462,-275.489"/>
<text text-anchor="middle" x="381.168" y="-314" font-family="Times,serif" font-size="10.00">1</text>
</g>
<!-- run&#45;single&#45;test&#45;&gt;run&#45;single&#45;test&#45;only -->
<g id="edge32" class="edge"><title>run&#45;single&#45;test&#45;&gt;run&#45;single&#45;test&#45;only</title>
<path fill="none" stroke="black" d="M357.115,-415C367.929,-415 379.75,-415 391.381,-415"/>
<polygon fill="black" stroke="black" points="391.524,-418.5 401.524,-415 391.524,-411.5 391.524,-418.5"/>
<text text-anchor="middle" x="381.168" y="-417" font-family="Times,serif" font-size="10.00">2</text>
</g>
<!-- test -->
<!-- &#45;&#45;&gt; run JUnit tests -->
<g id="node32" class="node"><title>test</title>
<polygon fill="limegreen" stroke="black" stroke-width="2" points="195.03,-55 141.03,-55 141.03,-19 195.03,-19 195.03,-55"/>
<text text-anchor="middle" x="168.03" y="-33.4" font-family="Times,serif" font-weight="bold" font-size="12.00">test</text>
</g>
<!-- test&#45;&gt;run&#45;tests -->
<g id="edge34" class="edge"><title>test&#45;&gt;run&#45;tests</title>
<path fill="none" stroke="black" d="M195.074,-37C215.229,-37 243.595,-37 267.226,-37"/>
<polygon fill="black" stroke="black" points="267.363,-40.5001 277.363,-37 267.363,-33.5001 267.363,-40.5001"/>
</g>
</g>
</svg>
