<?xml version="1.0" encoding="UTF-8" standalone="no"?>
<!DOCTYPE svg PUBLIC "-//W3C//DTD SVG 1.1//EN" "http://www.w3.org/Graphics/SVG/1.1/DTD/svg11.dtd">
<!-- Generated by graphviz version 2.38.0 (20140413.2041) -->
<!-- Title: null Pages: 1 -->
<svg width="572pt" height="98pt" viewBox="0.00 0.00 571.50 98.00" xmlns="http://www.w3.org/2000/svg" xmlns:xlink="http://www.w3.org/1999/xlink">
<g id="graph0" class="graph" transform="scale(1 1) rotate(0) translate(4 94)">
<title>null</title>
<polygon fill="white" stroke="none" points="-4,4 -4,-94 567.502,-94 567.502,4 -4,4"/>
<!-- main -->
<!-- &#45;&#45;&gt; creates a minimum distribution in ./dist -->
<g id="node1" class="node"><title>main</title>
<polygon fill="yellow" stroke="black" stroke-width="2" points="57.4326,-37.5442 57.4326,-52.4558 40.5686,-63 16.7193,-63 -0.144679,-52.4558 -0.144679,-37.5442 16.7193,-27 40.5686,-27 57.4326,-37.5442"/>
<text text-anchor="middle" x="28.644" y="-41.4" font-family="Helvetica,sans-Serif" font-weight="bold" font-size="12.00">main</text>
</g>
<!-- dist&#45;lite -->
<!-- &#45;&#45;&gt; creates a minimum distribution to run Apache Ant -->
<g id="node2" class="node"><title>dist&#45;lite</title>
<polygon fill="limegreen" stroke="black" stroke-width="2" points="148.779,-63 94.4568,-63 94.4568,-27 148.779,-27 148.779,-63"/>
<text text-anchor="middle" x="121.618" y="-41.4" font-family="Times,serif" font-weight="bold" font-size="12.00">dist&#45;lite</text>
</g>
<!-- main&#45;&gt;dist&#45;lite -->
<g id="edge1" class="edge"><title>main&#45;&gt;dist&#45;lite</title>
<path fill="none" stroke="black" d="M57.4335,-45C65.8463,-45 75.216,-45 84.1089,-45"/>
<polygon fill="black" stroke="black" points="84.2435,-48.5001 94.2434,-45 84.2434,-41.5001 84.2435,-48.5001"/>
</g>
<!-- jars -->
<!-- &#45;&#45;&gt; creates the Apache Ant jars -->
<g id="node6" class="node"><title>jars</title>
<polygon fill="limegreen" stroke="black" stroke-width="2" points="239.948,-63 185.948,-63 185.948,-27 239.948,-27 239.948,-63"/>
<text text-anchor="middle" x="212.948" y="-41.4" font-family="Times,serif" font-weight="bold" font-size="12.00">jars</text>
</g>
<!-- dist&#45;lite&#45;&gt;jars -->
<g id="edge4" class="edge"><title>dist&#45;lite&#45;&gt;jars</title>
<path fill="none" stroke="black" d="M148.937,-45C157.297,-45 166.694,-45 175.63,-45"/>
<polygon fill="black" stroke="black" points="175.817,-48.5001 185.817,-45 175.817,-41.5001 175.817,-48.5001"/>
</g>
<!-- prepare -->
<g id="node3" class="node"><title>prepare</title>
<ellipse fill="none" stroke="black" cx="467.725" cy="-72" rx="31.0058" ry="18"/>
<text text-anchor="middle" x="467.725" y="-68.4" font-family="Times,serif" font-size="12.00">prepare</text>
</g>
<!-- check_for_optional_packages -->
<g id="node4" class="node"><title>check_for_optional_packages</title>
<ellipse fill="none" stroke="black" cx="467.725" cy="-18" rx="95.5548" ry="18"/>
<text text-anchor="middle" x="467.725" y="-14.4" font-family="Times,serif" font-size="12.00">check_for_optional_packages</text>
</g>
<!-- build -->
<!-- &#45;&#45;&gt; compiles the source code -->
<g id="node5" class="node"><title>build</title>
<polygon fill="limegreen" stroke="black" stroke-width="2" points="330.948,-63 276.948,-63 276.948,-27 330.948,-27 330.948,-63"/>
<text text-anchor="middle" x="303.948" y="-41.4" font-family="Times,serif" font-weight="bold" font-size="12.00">build</text>
</g>
<!-- build&#45;&gt;prepare -->
<g id="edge2" class="edge"><title>build&#45;&gt;prepare</title>
<path fill="none" stroke="black" d="M331.3,-49.3981C357.33,-53.7424 397.463,-60.4404 427.29,-65.4184"/>
<polygon fill="black" stroke="black" points="426.931,-68.9068 437.371,-67.1008 428.083,-62.0023 426.931,-68.9068"/>
<text text-anchor="middle" x="351.448" y="-54" font-family="Times,serif" font-size="10.00">1</text>
</g>
<!-- build&#45;&gt;check_for_optional_packages -->
<g id="edge3" class="edge"><title>build&#45;&gt;check_for_optional_packages</title>
<path fill="none" stroke="black" d="M331.3,-40.6019C346.236,-38.1092 365.815,-34.8415 385.427,-31.5684"/>
<polygon fill="black" stroke="black" points="386.06,-35.0113 395.347,-29.9127 384.907,-28.1068 386.06,-35.0113"/>
<text text-anchor="middle" x="351.448" y="-39" font-family="Times,serif" font-size="10.00">2</text>
</g>
<!-- jars&#45;&gt;build -->
<g id="edge5" class="edge"><title>jars&#45;&gt;build</title>
<path fill="none" stroke="black" d="M240.17,-45C248.499,-45 257.862,-45 266.764,-45"/>
<polygon fill="black" stroke="black" points="266.914,-48.5001 276.914,-45 266.914,-41.5001 266.914,-48.5001"/>
</g>
</g>
</svg>
