<?xml version="1.0" encoding="UTF-8" standalone="no"?>
<!DOCTYPE svg PUBLIC "-//W3C//DTD SVG 1.1//EN" "http://www.w3.org/Graphics/SVG/1.1/DTD/svg11.dtd">
<!-- Generated by graphviz version 2.38.0 (20140413.2041) -->
<!-- Title: null Pages: 1 -->
<svg width="670pt" height="98pt" viewBox="0.00 0.00 670.36 98.00" xmlns="http://www.w3.org/2000/svg" xmlns:xlink="http://www.w3.org/1999/xlink">
<g id="graph0" class="graph" transform="scale(1 1) rotate(0) translate(4 94)">
<title>null</title>
<polygon fill="white" stroke="none" points="-4,4 -4,-94 666.361,-94 666.361,4 -4,4"/>
<!-- dist_javadocs -->
<g id="node1" class="node"><title>dist_javadocs</title>
<ellipse fill="none" stroke="black" cx="272.29" cy="-72" rx="48.8022" ry="18"/>
<text text-anchor="middle" x="272.29" y="-68.4" font-family="Times,serif" font-size="12.00">dist_javadocs</text>
</g>
<!-- javadocs -->
<!-- &#45;&#45;&gt; creates the API documentation -->
<g id="node2" class="node"><title>javadocs</title>
<polygon fill="limegreen" stroke="black" stroke-width="2" points="490.691,-89 430.357,-89 430.357,-53 490.691,-53 490.691,-89"/>
<text text-anchor="middle" x="460.524" y="-67.4" font-family="Times,serif" font-weight="bold" font-size="12.00">javadocs</text>
</g>
<!-- dist_javadocs&#45;&gt;javadocs -->
<g id="edge1" class="edge"><title>dist_javadocs&#45;&gt;javadocs</title>
<path fill="none" stroke="black" d="M321.25,-71.7425C351.965,-71.5775 391.33,-71.3662 420.198,-71.2112"/>
<polygon fill="black" stroke="black" points="420.342,-74.7105 430.323,-71.1568 420.304,-67.7106 420.342,-74.7105"/>
</g>
<!-- prepare -->
<g id="node5" class="node"><title>prepare</title>
<ellipse fill="none" stroke="black" cx="631.109" cy="-53" rx="31.0058" ry="18"/>
<text text-anchor="middle" x="631.109" y="-49.4" font-family="Times,serif" font-size="12.00">prepare</text>
</g>
<!-- javadocs&#45;&gt;prepare -->
<g id="edge4" class="edge"><title>javadocs&#45;&gt;prepare</title>
<path fill="none" stroke="black" d="M490.889,-67.8646C518.315,-64.9363 559.482,-60.5409 589.943,-57.2886"/>
<polygon fill="black" stroke="black" points="590.659,-60.7322 600.23,-56.1902 589.915,-53.7717 590.659,-60.7322"/>
</g>
<!-- internal_dist -->
<g id="node3" class="node"><title>internal_dist</title>
<ellipse fill="none" stroke="black" cx="136.695" cy="-39" rx="45.8901" ry="18"/>
<text text-anchor="middle" x="136.695" y="-35.4" font-family="Times,serif" font-size="12.00">internal_dist</text>
</g>
<!-- internal_dist&#45;&gt;dist_javadocs -->
<g id="edge3" class="edge"><title>internal_dist&#45;&gt;dist_javadocs</title>
<path fill="none" stroke="black" d="M175.978,-48.4565C190.011,-51.9228 206.111,-55.8997 221.035,-59.5862"/>
<polygon fill="black" stroke="black" points="220.592,-63.0819 231.139,-62.0821 222.27,-56.2861 220.592,-63.0819"/>
<text text-anchor="middle" x="202.889" y="-57" font-family="Times,serif" font-size="10.00">2</text>
</g>
<!-- dist&#45;lite -->
<!-- &#45;&#45;&gt; creates a minimum distribution to run Apache Ant -->
<g id="node4" class="node"><title>dist&#45;lite</title>
<polygon fill="limegreen" stroke="black" stroke-width="2" points="299.451,-36 245.129,-36 245.129,-0 299.451,-0 299.451,-36"/>
<text text-anchor="middle" x="272.29" y="-14.4" font-family="Times,serif" font-weight="bold" font-size="12.00">dist&#45;lite</text>
</g>
<!-- internal_dist&#45;&gt;dist&#45;lite -->
<g id="edge2" class="edge"><title>internal_dist&#45;&gt;dist&#45;lite</title>
<path fill="none" stroke="black" d="M179.599,-32.4131C197.342,-29.624 217.82,-26.405 234.917,-23.7175"/>
<polygon fill="black" stroke="black" points="235.735,-27.132 245.07,-22.1215 234.648,-20.2169 235.735,-27.132"/>
<text text-anchor="middle" x="202.889" y="-32" font-family="Times,serif" font-size="10.00">1</text>
</g>
<!-- jars -->
<!-- &#45;&#45;&gt; creates the Apache Ant jars -->
<g id="node7" class="node"><title>jars</title>
<polygon fill="limegreen" stroke="black" stroke-width="2" points="412.191,-42 358.191,-42 358.191,-6 412.191,-6 412.191,-42"/>
<text text-anchor="middle" x="385.191" y="-20.4" font-family="Times,serif" font-weight="bold" font-size="12.00">jars</text>
</g>
<!-- dist&#45;lite&#45;&gt;jars -->
<g id="edge6" class="edge"><title>dist&#45;lite&#45;&gt;jars</title>
<path fill="none" stroke="black" d="M299.572,-19.4219C313.936,-20.199 331.95,-21.1736 347.662,-22.0237"/>
<polygon fill="black" stroke="black" points="347.923,-25.5429 358.098,-22.5883 348.302,-18.5531 347.923,-25.5429"/>
</g>
<!-- build -->
<!-- &#45;&#45;&gt; compiles the source code -->
<g id="node6" class="node"><title>build</title>
<polygon fill="limegreen" stroke="black" stroke-width="2" points="562.857,-43 508.857,-43 508.857,-7 562.857,-7 562.857,-43"/>
<text text-anchor="middle" x="535.857" y="-21.4" font-family="Times,serif" font-weight="bold" font-size="12.00">build</text>
</g>
<!-- build&#45;&gt;prepare -->
<g id="edge5" class="edge"><title>build&#45;&gt;prepare</title>
<path fill="none" stroke="black" d="M563.33,-32.9488C572.619,-35.7378 583.228,-38.9235 593.215,-41.922"/>
<polygon fill="black" stroke="black" points="592.337,-45.3129 602.921,-44.8366 594.35,-38.6086 592.337,-45.3129"/>
</g>
<!-- jars&#45;&gt;build -->
<g id="edge8" class="edge"><title>jars&#45;&gt;build</title>
<path fill="none" stroke="black" d="M412.427,-24.1765C436.344,-24.3374 471.902,-24.5765 498.543,-24.7557"/>
<polygon fill="black" stroke="black" points="498.61,-28.2562 508.634,-24.8236 498.657,-21.2563 498.61,-28.2562"/>
</g>
<!-- dist -->
<!-- &#45;&#45;&gt; creates a complete distribution -->
<g id="node8" class="node"><title>dist</title>
<polygon fill="limegreen" stroke="black" stroke-width="2" points="54,-57 0,-57 0,-21 54,-21 54,-57"/>
<text text-anchor="middle" x="27" y="-35.4" font-family="Times,serif" font-weight="bold" font-size="12.00">dist</text>
</g>
<!-- dist&#45;&gt;internal_dist -->
<g id="edge7" class="edge"><title>dist&#45;&gt;internal_dist</title>
<path fill="none" stroke="black" stroke-dasharray="1,5" d="M54.0699,-39C62.2072,-39 71.5101,-39 80.8528,-39"/>
<polygon fill="black" stroke="black" points="80.9532,-42.5001 90.9531,-39 80.9531,-35.5001 80.9532,-42.5001"/>
</g>
</g>
</svg>
